<svg xmlns="http://www.w3.org/2000/svg" xmlns:xlink="http://www.w3.org/1999/xlink" viewBox="0 0 95.481 89.3850738461875" height="89.3850738461875" width="95.481" data-background-color="#ffffff" preserveAspectRatio="xMidYMid meet" id="tight-bounds"><g><svg viewBox="0 0 95.481 89.3850738461875" height="89.3850738461875" width="95.481"><g><svg viewBox="0 0 95.481 89.3850738461875" height="89.3850738461875" width="95.481"><g id="textblocktransform"><svg viewBox="0 0 95.481 89.3850738461875" height="89.3850738461875" width="95.481" id="textblock"><g><svg viewBox="0 0 95.481 89.3850738461875" height="89.3850738461875" width="95.481"><g><svg viewBox="0 0 95.481 89.3850738461875" height="89.3850738461875" width="95.481"><g><svg xmlns="http://www.w3.org/2000/svg" xml:space="preserve" viewBox="5 7.873000144958496 89.99999237060547 84.25399780273438" x="0" y="0" height="89.3850738461875" width="95.481" class="icon-icon-0" data-fill-palette-color="accent" id="icon-0" fill="#ffffff"><path d="M60.532 7.873c-8.872 0-16.168 6.702-17.122 15.319h-4.058c-0.954-8.617-8.247-15.319-17.118-15.319C12.712 7.873 5 15.588 5 25.106S12.712 42.34 22.234 42.34c8.198 0 15.046-5.733 16.792-13.404h4.709c1.747 7.671 8.595 13.404 16.797 13.404 9.518 0 17.233-7.716 17.233-17.234 0.001-9.518-7.715-17.233-17.233-17.233M91.17 40.425a3.83 3.83 0 0 0-3.829 3.83v2.461l-10.103 2.887a1.914 1.914 0 0 0-1.388 1.84v8.6c0 0.856 0.565 1.606 1.388 1.842l10.103 2.887v2.461a3.83 3.83 0 0 0 7.659 0V44.255a3.833 3.833 0 0 0-3.83-3.83" fill="#ffffff" data-fill-palette-color="accent"/><path d="M41.383 37.837c-4.144 6.279-11.22 10.248-19.148 10.248a22.8 22.8 0 0 1-11.489-3.108v18.427a3.83 3.83 0 0 0 3.829 3.83h15.548L10.745 86.697v5.43h5.396l24.793-24.894h0.976l24.789 24.894h5.322v-5.513l-19.302-19.38h15.473a3.83 3.83 0 0 0 3.83-3.83V44.977c-3.389 1.963-7.305 3.108-11.489 3.108-7.933 0-15.01-3.968-19.15-10.248" fill="#ffffff" data-fill-palette-color="accent"/></svg></g></svg></g></svg></g></svg></g></svg></g><g/></svg></g><defs/></svg>